<svg xmlns="http://www.w3.org/2000/svg" xmlns:xlink="http://www.w3.org/1999/xlink" fill="none" viewBox="0 0 512 512"><defs><path id="a" d="M-238.712 185.9244h234m-234-12h234m-234 24h234"/></defs><path stroke="#000" stroke-width="4" d="M18 18h476v476H18Z"/><circle cx="448" cy="64" r="22" stroke="#000" stroke-width="4"/><path stroke="#000" stroke-miterlimit="5" stroke-width="4" d="M42 426h44v44H42zm0-58h44v44H42zm58 58h44v44h-44Zm0-58h44v44h-44zm58 58h44v44h-44zm0-58h44v44h-44zm58 58h44v44h-44zm0-58h44v44h-44zm58 58h44v44h-44zm0-58h44v44h-44zm75.9999 58h92v44h-92zM350 368h92v44h-92zm0-58h92v44h-92zM42 236h294v60H42zm0-194h294v60H42zm0 74h294v60H42z" paint-order="markers fill stroke"/><path fill="#000" d="M64 377.998q-3.0469 0-4.5899 3.0079-1.5234 2.9883-1.5234 9.0039 0 5.996 1.5234 9.0039 1.543 2.9883 4.5899 2.9883 3.0664 0 4.5898-2.9883 1.543-3.0078 1.543-9.0039 0-6.0156-1.543-9.004-1.5234-3.0077-4.5898-3.0077zm0-3.125q4.9023 0 7.4804 3.8868 2.5977 3.8672 2.5977 11.25 0 7.3633-2.5977 11.25-2.578 3.8672-7.4804 3.8672t-7.5-3.8672q-2.5782-3.8867-2.5782-11.25 0-7.3828 2.5782-11.25 2.5976-3.8867 7.5-3.8867zm49.8847 26.3868h6.4454v-22.2461l-7.0118 1.4063v-3.5938l6.9727-1.4063h3.9453v25.8399h6.4453v3.3203h-16.7969zm61.6035.2637h13.7696v3.3203h-18.5156v-3.3203q2.246-2.3243 6.1132-6.2305 3.8868-3.9258 4.8829-5.0586 1.8945-2.1289 2.6367-3.5938.7617-1.4843.7617-2.9101 0-2.3242-1.6406-3.789-1.6211-1.465-4.2383-1.465-1.8555 0-3.9258.6446-2.0508.6445-4.3945 1.9531V377.09q2.3828-.957 4.453-1.4453 2.0704-.4883 3.7892-.4883 4.5312 0 7.2265 2.2656 2.6953 2.2656 2.6953 6.0547 0 1.7969-.6836 3.418-.664 1.6015-2.4414 3.789-.4882.5664-3.1054 3.2813-2.6172 2.6953-7.3828 7.5586zm66.0958-12.6855q2.832.6054 4.414 2.5194 1.6016 1.9141 1.6016 4.7266 0 4.3164-2.9688 6.6797-2.9687 2.3633-8.4375 2.3633-1.836 0-3.789-.3711-1.9336-.3516-4.004-1.0742v-3.8086q1.6407.957 3.5938 1.4453 1.9531.4883 4.082.4883 3.711 0 5.6446-1.4649 1.953-1.4648 1.953-4.2578 0-2.5781-1.8163-4.0234-1.7969-1.4649-5.0195-1.4649h-3.3985v-3.2422h3.5547q2.9102 0 4.4531-1.1523 1.543-1.1719 1.543-3.3594 0-2.246-1.6016-3.4375-1.582-1.211-4.5507-1.211-1.6211 0-3.4766.3516t-4.082 1.0938v-3.5156q2.246-.625 4.1992-.9375 1.9726-.3125 3.711-.3125 4.4921 0 7.1093 2.0508 2.6172 2.0312 2.6172 5.5078 0 2.4218-1.3867 4.1015-1.3868 1.6602-3.9453 2.3047zm56.955-9.9806-9.961 15.5665h9.961zm-1.0351-3.4375h4.961v19.004h4.16v3.2812h-4.16v6.875h-3.9259v-6.875h-13.164v-3.8086zM55.7968 433.1368h15.4883v3.3203h-11.875v7.1484q.8594-.293 1.7188-.4297.8594-.1562 1.7187-.1562 4.8828 0 7.7344 2.6757 2.8516 2.6758 2.8516 7.2461 0 4.707-2.9297 7.3243-2.9297 2.5976-8.2617 2.5976-1.836 0-3.75-.3125-1.8946-.3125-3.9258-.9375v-3.9648q1.7578.957 3.6328 1.4258 1.875.4687 3.9648.4687 3.379 0 5.3516-1.7773 1.9727-1.7774 1.9727-4.8243 0-3.0468-1.9727-4.8242-1.9727-1.7773-5.3516-1.7773-1.582 0-3.164.3515-1.5625.3516-3.2032 1.0938zm66.545 13.2714q-2.6563 0-4.2188 1.8164-1.543 1.8165-1.543 4.9805 0 3.1445 1.543 4.9805 1.5625 1.8164 4.2188 1.8164 2.6562 0 4.1992-1.8164 1.5625-1.836 1.5625-4.9805 0-3.164-1.5625-4.9805-1.543-1.8164-4.1992-1.8164zm7.832-12.3633v3.5938q-1.4844-.7031-3.0078-1.0742-1.504-.3711-2.9883-.3711-3.9063 0-5.9766 2.6367-2.0507 2.6367-2.3437 7.9688 1.1523-1.6993 2.8906-2.5977 1.7383-.918 3.8281-.918 4.3946 0 6.9336 2.6758 2.5586 2.6563 2.5586 7.2461 0 4.4922-2.6562 7.207-2.6563 2.7149-7.0703 2.7149-5.0586 0-7.7344-3.8672-2.6758-3.8867-2.6758-11.25 0-6.914 3.2813-11.0156 3.2812-4.1211 8.8086-4.1211 1.4843 0 2.9882.293 1.5235.293 3.1641.8789zm40.4512-.6249h18.75v1.6796l-10.586 27.4805h-4.121l9.9609-25.8398h-14.004zM238 448q-2.8125 0-4.4336 1.504-1.6016 1.5038-1.6016 4.1406 0 2.6367 1.6016 4.1406 1.621 1.5039 4.4336 1.5039 2.8125 0 4.4336-1.504 1.621-1.5233 1.621-4.1405 0-2.6368-1.621-4.1407Q240.832 448 238 448zm-3.9453-1.6797q-2.5391-.625-3.9649-2.3632-1.4062-1.7383-1.4062-4.2383 0-3.4961 2.4804-5.5274 2.5-2.0312 6.836-2.0312 4.3554 0 6.836 2.0312 2.4804 2.0313 2.4804 5.5274 0 2.5-1.4258 4.2383-1.4063 1.7382-3.9258 2.3632 2.8516.6641 4.4336 2.5977Q248 450.8516 248 453.6446q0 4.2382-2.5977 6.5039-2.5781 2.2656-7.4023 2.2656-4.8243 0-7.422-2.2656-2.578-2.2657-2.578-6.504 0-2.793 1.6015-4.7265 1.6016-1.9336 4.4532-2.5977zm-1.4454-6.2304q0 2.2656 1.4063 3.5351 1.4258 1.2696 3.9844 1.2696 2.539 0 3.9648-1.2696 1.4453-1.2695 1.4453-3.5351 0-2.2657-1.4453-3.5352-1.4258-1.2695-3.9648-1.2695-2.5586 0-3.9844 1.2695-1.4063 1.2695-1.4063 3.5352zm55.2071 21.8652v-3.5937q1.4843.703 3.0078 1.0742 1.5234.371 2.9883.371 3.9062 0 5.957-2.6171 2.0703-2.6367 2.3633-7.9883-1.1328 1.6797-2.8711 2.5781-1.7383.8985-3.8477.8985-4.375 0-6.9336-2.6367-2.539-2.6563-2.539-7.2461 0-4.4922 2.6562-7.207 2.6563-2.715 7.0703-2.715 5.0586 0 7.7149 3.8868 2.6758 3.8672 2.6758 11.25 0 6.8945-3.2813 11.0156-3.2617 4.1016-8.789 4.1016-1.4844 0-3.0079-.293-1.5234-.293-3.164-.8789zm7.8515-12.3633q2.6563 0 4.1993-1.8164 1.5625-1.8164 1.5625-4.9804 0-3.1446-1.5625-4.961-1.543-1.836-4.1993-1.836-2.6562 0-4.2187 1.836-1.543 1.8164-1.543 4.961 0 3.164 1.543 4.9804 1.5625 1.8164 4.2187 1.8164z" font-family="sans-serif" font-size="40" style="line-height:1.25;-inkscape-font-specification:sans-serif;text-align:center" text-anchor="middle"/><path fill="#000" d="M-441.2867 156.787v3.8476q-2.2461-1.0742-4.2383-1.6016-1.9922-.5273-3.8477-.5273-3.2226 0-4.9804 1.25-1.7383 1.25-1.7383 3.5547 0 1.9336 1.1523 2.9297 1.172.9765 4.4141 1.582l2.3828.4883q4.414.8398 6.504 2.9687 2.1093 2.1094 2.1093 5.6641 0 4.2383-2.8516 6.4258-2.832 2.1875-8.3203 2.1875-2.0703 0-4.414-.4688-2.3243-.4687-4.8243-1.3867v-4.0625q2.4024 1.3477 4.707 2.0313 2.3048.6836 4.5313.6836 3.379 0 5.2149-1.3282 1.836-1.328 1.836-3.789 0-2.1485-1.3282-3.3594-1.3086-1.211-4.3164-1.8164l-2.4024-.4688q-4.414-.8789-6.3867-2.7539-1.9726-1.875-1.9726-5.2148 0-3.8672 2.7148-6.0938 2.7344-2.2265 7.5195-2.2265 2.0508 0 4.1797.371 2.129.3712 4.3555 1.1134zm7.4609-.957h3.9649v17.7148q0 4.6875 1.6992 6.7578 1.6992 2.0508 5.5078 2.0508 3.789 0 5.4883-2.0508 1.6992-2.0703 1.6992-6.7578v-17.7149h3.9648v18.2031q0 5.7032-2.832 8.6133-2.8125 2.9102-8.3203 2.9102-5.5273 0-8.3594-2.9102-2.8125-2.9101-2.8125-8.6132zm33.6719 15.2343v10.6836h6.3281q3.1836 0 4.707-1.3086 1.543-1.3281 1.543-4.043 0-2.7343-1.543-4.0234-1.5234-1.3086-4.707-1.3086zm0-11.9922v8.789h5.8398q2.8907 0 4.297-1.0741 1.4257-1.0938 1.4257-3.3204 0-2.207-1.4258-3.3007-1.4062-1.0938-4.2969-1.0938zm-3.9453-3.2422h10.0781q4.5117 0 6.9531 1.875t2.4414 5.332q0 2.6758-1.25 4.2579-1.25 1.582-3.6718 1.9726 2.9101.625 4.5117 2.6172 1.621 1.9727 1.621 4.9414 0 3.9063-2.6562 6.0352t-7.5586 2.1289h-10.4687z" font-size="40" style="line-height:1.25;-inkscape-font-specification:sans-serif;text-align:center" text-anchor="middle" transform="translate(818.6636 161.3068)"/><path fill="#000" d="M-359.9977 159.0721v22.6758h4.7657q6.0351 0 8.8281-2.7344 2.8125-2.7344 2.8125-8.6328 0-5.8594-2.8125-8.5742-2.793-2.7344-8.8281-2.7344zm-3.9453-3.2422h8.1055q8.4766 0 12.4414 3.5352 3.9649 3.5156 3.9649 11.0156 0 7.539-3.9844 11.0742-3.9844 3.5352-12.4219 3.5352h-8.1055zm30.8008.0001h18.4375v3.3202h-14.4922v8.6328h13.8868v3.3204h-13.8868v10.5664h14.8438v3.3203h-18.789zm25.2735 0h3.9453v25.8398h14.1992v3.3203h-18.1445z" font-size="40" style="line-height:1.25;-inkscape-font-specification:sans-serif;text-align:center" text-anchor="middle" transform="translate(722.8335 219.59)"/><path fill="#000" d="M-251.0328 158.076v4.1602q-1.9922-1.8555-4.2578-2.7735-2.2461-.918-4.7852-.918-5 0-7.6562 3.0665-2.6563 3.0468-2.6563 8.8281 0 5.7617 2.6563 8.8281 2.6562 3.0469 7.6562 3.0469 2.539 0 4.7852-.918 2.2656-.918 4.2578-2.7734v4.121q-2.0703 1.4063-4.3945 2.1095-2.3047.703-4.8829.703-6.621 0-10.4296-4.0429-3.8086-4.0625-3.8086-11.0742 0-7.0312 3.8086-11.0742 3.8086-4.0625 10.4296-4.0625 2.6172 0 4.922.7031 2.3241.6836 4.3554 2.0703zm6.0938-2.246h3.9453v25.8398h14.1992v3.3203h-18.1446zm36.1132 15.4882q1.2696.4297 2.461 1.836 1.2109 1.4062 2.4218 3.8671l4.004 7.9688h-4.2383l-3.7305-7.4805q-1.4453-2.9297-2.8125-3.8867-1.3477-.957-3.6914-.957h-4.2969V184.99h-3.9453v-29.1602h8.9062q5 0 7.461 2.0899 2.461 2.0898 2.461 6.3086 0 2.7539-1.2891 4.5703-1.2696 1.8164-3.711 2.5195zm-9.8828-12.246v10.3515h4.961q2.8515 0 4.2968-1.3086 1.4649-1.3281 1.4649-3.8867 0-2.5586-1.4649-3.8477-1.4453-1.3086-4.2969-1.3086z" font-size="40" style="line-height:1.25;-inkscape-font-specification:sans-serif;text-align:center" text-anchor="middle" transform="translate(633.2437 277.5705)"/><use xlink:href="#a" stroke="#000" stroke-width="3.7802" transform="matrix(1.11966 0 0 1 325.2758 -39.9244)"/><use xlink:href="#a" stroke="#000" stroke-width="3.7802" transform="matrix(1.11966 0 0 1 325.2758 -113.9244)"/></svg>